# xmcd CD database file
#
# Track frame offsets:
#	150
#	11044
#	27994
#	47963
#	71945
#	93831
#	115535
#	138213
#	160198
#	181480
#
# Disc length: 2712 seconds
#
# Revision: 0
# Processed by: cddbd v1.5.2PL0 Copyright (c) Steve Scherf et al.
# Submitted via: CDex 1.70beta2
#
DISCID=810a960a
DTITLE=Chris Rhodes - just strummin'
DYEAR=2001
DGENRE=Jazz
TTITLE0=I Left My Heart In San Francisco
TTITLE1=Embraceable You
TTITLE2=Creepin'
TTITLE3=Swingin' Shepherd Blues
TTITLE4=A Man and A Woman
TTITLE5=Bluesette
TTITLE6=Sweet Love
TTITLE7=Take Five
TTITLE8=Desafinado
TTITLE9=My Funny Valentine
EXTD=YEAR: 2001
EXTT0=
EXTT1=
EXTT2=
EXTT3=
EXTT4=
EXTT5=
EXTT6=
EXTT7=
EXTT8=
EXTT9=
PLAYORDER=
